<?xml version="1.0" standalone="no"?>
<!DOCTYPE svg PUBLIC "-//W3C//DTD SVG 20010904//EN"
 "http://www.w3.org/TR/2001/REC-SVG-20010904/DTD/svg10.dtd">
<svg version="1.0" xmlns="http://www.w3.org/2000/svg"
 width="1024.000000pt" height="1024.000000pt" viewBox="0 0 1024.000000 1024.000000"
 preserveAspectRatio="xMidYMid meet">
<metadata>
Created by potrace 1.14, written by Peter Selinger 2001-2017
</metadata>
<g transform="translate(0.000000,1024.000000) scale(0.100000,-0.100000)"
fill="#000000" stroke="none">
<path d="M8009 8918 c-26 -50 -210 -280 -334 -418 -92 -103 -350 -353 -475
-461 -74 -63 -220 -182 -325 -264 -549 -430 -725 -617 -891 -941 -89 -175
-162 -399 -179 -549 -4 -33 -9 -64 -12 -68 -3 -5 -6 -77 -8 -160 -4 -262 19
-398 120 -702 32 -93 63 -181 71 -195 l13 -25 1 33 c0 17 0 33 1 35 0 1 5 22
10 47 6 25 13 56 15 69 60 313 248 782 429 1071 162 258 270 404 465 625 65
75 315 321 390 386 169 145 183 150 58 23 -70 -71 -142 -147 -160 -168 -18
-22 -62 -74 -98 -115 -344 -400 -625 -916 -765 -1401 -19 -66 -37 -132 -39
-145 -3 -14 -12 -60 -20 -102 -26 -131 -40 -236 -49 -364 l-4 -56 126 32 c939
242 1598 635 1942 1158 150 228 250 507 276 774 10 98 10 335 0 433 -34 358
-153 743 -347 1133 -74 146 -174 322 -189 332 -6 3 -15 -5 -22 -17z"/>
<path d="M3609 6256 c-2 -2 -31 -6 -64 -9 -175 -17 -387 -82 -581 -178 -225
-111 -426 -260 -634 -468 -177 -178 -304 -331 -440 -531 -73 -108 -231 -372
-226 -378 2 -2 21 -5 42 -8 99 -11 134 -15 204 -25 41 -6 86 -12 100 -15 14
-3 41 -7 60 -10 19 -2 43 -7 52 -10 10 -3 30 -7 45 -10 43 -7 115 -24 278 -66
220 -57 522 -161 850 -293 302 -121 495 -190 630 -223 92 -23 124 -29 250 -49
64 -10 392 -10 470 0 391 49 760 225 1028 490 97 96 297 326 297 341 0 3 -12
0 -27 -8 -79 -40 -463 -144 -598 -162 -27 -3 -52 -7 -55 -9 -3 -2 -30 -6 -60
-9 -30 -4 -71 -9 -90 -11 -192 -26 -688 -26 -820 0 -14 3 -50 7 -80 10 -30 3
-73 8 -95 11 -62 8 -387 74 -420 85 -16 5 -95 27 -175 49 -80 23 -192 59 -250
80 -58 22 -110 40 -116 40 -6 0 -19 7 -30 15 -18 14 -18 15 6 5 41 -16 308
-85 367 -95 21 -3 83 -14 138 -25 119 -23 155 -28 243 -36 37 -4 69 -8 72 -9
44 -26 720 -26 870 -1 14 3 47 7 74 11 42 5 145 22 241 40 126 24 412 113 543
169 151 65 202 89 202 97 0 10 -230 239 -335 332 -49 45 -92 83 -95 87 -3 3
-41 35 -85 70 -44 36 -82 67 -85 70 -26 29 -327 238 -395 276 -11 6 -54 31
-95 54 -223 128 -506 236 -720 274 -47 9 -98 18 -115 22 -34 6 -369 16 -376
10z"/>
<path d="M6270 4967 c0 -3 31 -30 68 -60 81 -65 250 -233 335 -332 33 -38 63
-72 67 -75 11 -9 125 -162 181 -245 202 -295 363 -620 483 -975 67 -199 145
-497 171 -660 4 -19 10 -52 14 -72 5 -21 6 -38 2 -38 -4 0 -17 39 -29 88 -13
48 -25 95 -27 105 -3 9 -7 25 -9 35 -11 43 -117 344 -135 383 -11 24 -38 89
-61 144 -41 99 -181 375 -225 444 -250 397 -461 647 -759 899 -34 29 -202 152
-238 175 -25 16 -27 16 -32 -1 -20 -68 -37 -132 -41 -150 -2 -11 -13 -54 -24
-94 -11 -40 -22 -84 -25 -98 -3 -14 -19 -88 -35 -165 -16 -77 -33 -162 -37
-190 -3 -27 -8 -57 -9 -67 -2 -9 -6 -38 -10 -65 -4 -26 -9 -59 -11 -73 -2 -14
-7 -63 -10 -110 -3 -47 -8 -101 -10 -120 -5 -48 -5 -367 0 -410 3 -19 7 -64
11 -100 25 -263 92 -499 205 -725 85 -171 175 -297 300 -425 101 -102 120
-119 215 -190 244 -184 542 -316 915 -406 56 -13 213 -43 255 -48 28 -4 57 -9
65 -11 14 -3 110 -14 190 -21 125 -11 375 -19 476 -15 l32 1 -63 149 c-57 132
-145 377 -175 486 -35 125 -44 159 -66 248 -25 99 -53 225 -59 262 -1 11 -12
72 -23 135 -12 63 -23 131 -26 150 -3 19 -12 85 -21 145 -8 61 -18 128 -21
150 -3 22 -9 65 -14 95 -5 30 -12 73 -15 95 -3 23 -7 52 -10 65 -80 417 -161
628 -344 899 -25 37 -47 68 -50 71 -4 3 -20 23 -36 45 -50 66 -215 226 -303
293 -226 170 -461 273 -772 338 -129 27 -260 47 -260 41z m1327 -2489 c-3 -8
-6 -5 -6 6 -1 11 2 17 5 13 3 -3 4 -12 1 -19z"/>
</g>
</svg>
