<svg xmlns="http://www.w3.org/2000/svg" xmlns:xlink="http://www.w3.org/1999/xlink" id="Layer_1" x="0" y="0" version="1.1" style="enable-background:new 0 0 1000 1000;width:100%" viewBox="216.68 417.28 566.65 165.44" xml:space="preserve"><style type="text/css">.st9{fill:#fff}</style><g><g><g><g><g><g><g><g><path d="M448.47,504.73h-40.14L403,515.85h-17.79l43.69-84.27l43.8,84.27h-18.79L448.47,504.73z M415.79,489.16 h25.13l-12.67-25.79L415.79,489.16z" class="st9"/></g></g><g><g><path d="M497.16,501.5v14.34h-17.23v-82.83h28.8c19.46,0,34.35,14.56,34.35,32.58 c0,14.9-7.12,25.79-18.68,31.13l17.9,19.12h-22.9l-13.56-14.34H497.16z M506.61,485.94c12.23,0,19.12-7.45,19.12-19.01 c0-10.12-6.12-18.34-18.12-18.34h-10.45v37.36H506.61z" class="st9"/></g></g><g><g><path d="M554.97,515.85v-82.83h26.57c15.34,0,26.35,6.45,26.35,21.9c0,5.78-1.89,10.34-5.89,14.01 c7.45,5.11,11.23,12.23,11.23,20.23c0,16.9-14.12,26.68-29.35,26.68H554.97z M580.88,463.93c8.34,0,9.34-4.23,9.34-7.67 c0-6.34-4.56-7.67-9.34-7.67h-8.67v15.34H580.88z M584.43,500.28c7.12,0,11.12-4.11,11.12-10.56c0-6.67-4-10.78-11.12-10.78 H572.2v21.35H584.43z" class="st9"/></g></g><g><g><path d="M622.12,474.38c0-23.68,19.12-42.8,42.8-42.8c23.79,0,42.92,19.12,42.92,42.8s-19.12,42.92-42.8,42.92 C641.24,517.29,622.12,498.06,622.12,474.38z M639.8,474.38c0,14.79,11.01,26.35,25.24,26.35 c14.01,0,25.13-11.56,25.13-26.35c0-14.56-11.23-26.35-25.24-26.35C650.8,448.03,639.8,459.81,639.8,474.38z" class="st9"/></g></g><g><g><path d="M737.41,501.5v14.34h-17.23v-82.83h28.8c19.46,0,34.35,14.56,34.35,32.58 c0,14.9-7.12,25.79-18.68,31.13l17.9,19.12h-22.9l-13.56-14.34H737.41z M746.86,485.94c12.23,0,19.12-7.45,19.12-19.01 c0-10.12-6.11-18.34-18.12-18.34h-10.45v37.36H746.86z" class="st9"/></g></g></g></g><g><g><path d="M385.21,567.78V530.9h19.61v6.93h-11.93v6.88h13.86v6.93h-13.86v16.14H385.21z" class="st9"/><path d="M448.68,567.78h-7.67V530.9h7.67V567.78z" class="st9"/><path d="M511.22,530.9h7.67v37.53l-26.24-21.83v21.19h-7.67v-37.58l26.24,22.03V530.9z" class="st9"/><path d="M579.54,562.83h-17.87l-2.38,4.95h-7.92l19.46-37.53l19.51,37.53h-8.37L579.54,562.83z M564.98,555.9 h11.19l-5.64-11.49L564.98,555.9z" class="st9"/><path d="M649.05,530.9h7.67v37.53l-26.24-21.83v21.19h-7.67v-37.58l26.24,22.03V530.9z" class="st9"/><path d="M726.64,559.47c-3.42,5.4-9.36,8.96-16.19,8.96c-10.55,0-18.96-8.52-18.96-19.06s8.42-19.11,18.91-19.11 c6.73,0,12.67,3.57,15.94,8.96l-5.99,4.26c-2.53-3.96-6.24-5.89-9.9-5.89c-6.19,0-11.09,5.25-11.09,11.78 c0,6.49,4.9,11.73,11.09,11.73c3.81,0,7.58-1.93,10.25-5.89L726.64,559.47z" class="st9"/><path d="M760.45,567.78V530.9h19.61v6.93h-11.93v6.88h13.86v6.93h-13.86v9.21h15.2v6.93H760.45z" class="st9"/></g></g></g></g><g><path fill="#1af110" fill-rule="evenodd" d="M365.3,582.66c-3.7-7.79-6.43-16.67-8.3-27.04c-0.49-2.72-0.88-5.49-1.25-8.16 c-1.05-7.58-2.05-14.73-5.3-21.47c-0.06-0.13-0.13-0.25-0.19-0.38c-4.89-9.86-13.21-17.04-23.5-20.23 c-0.08-0.03-0.19-0.06-0.3-0.09c-1.76-0.5-6.79-1.63-10.21-2.1c0.5,0.4,1.02,0.83,1.56,1.28c0.09,0.07,0.17,0.14,0.26,0.21 c1.33,1.18,2.78,2.46,4.19,3.92c0.7,0.73,1.42,1.49,2.15,2.26c0.72,0.78,1.39,1.64,2.1,2.48c1.46,1.65,2.73,3.55,4.09,5.4 c0.03,0.04,0.05,0.08,0.08,0.12c1.28,1.86,2.43,3.84,3.63,5.78c1.05,2.08,2.19,4.11,3.15,6.18c0.88,2.11,1.81,4.15,2.58,6.17 c0.69,2.05,1.36,4.03,1.99,5.91c0.57,1.89,0.97,3.72,1.42,5.39c0.43,1.67,0.83,3.19,1.03,4.58c0.24,1.37,0.45,2.57,0.62,3.56 c0.34,1.97,0.54,3.09,0.54,3.09s-0.29-1.11-0.8-3.04c-0.25-0.97-0.56-2.14-0.91-3.48c-0.31-1.35-0.83-2.83-1.39-4.45 c-0.57-1.61-1.12-3.37-1.83-5.18c-0.77-1.79-1.59-3.67-2.43-5.62c-0.92-1.91-1.99-3.82-3.01-5.79 c-1.09-1.93-2.36-3.8-3.53-5.7c-1.34-1.8-2.61-3.64-4.01-5.34c-1.45-1.66-2.78-3.35-4.3-4.79c-0.74-0.73-1.43-1.49-2.17-2.16 c-0.75-0.66-1.48-1.31-2.19-1.94c-1.42-1.25-2.86-2.32-4.18-3.3c-0.9-0.63-1.74-1.19-2.54-1.72 c-7.61,25.73-6.23,45.31,4.18,58.24C330.5,582.58,357.08,582.98,365.3,582.66z" clip-rule="evenodd"/><path fill="url(#paint0_linear_631_967)" fill-rule="evenodd" d="M354.5,417.28c-4.89,7.1-11.22,13.9-19.27,20.71c-2.11,1.79-4.31,3.5-6.44,5.16 c-6.04,4.7-11.73,9.14-15.94,15.33c-0.08,0.12-0.15,0.24-0.23,0.36c-6.09,9.16-8.15,19.96-5.78,30.47 c0.02,0.08,0.05,0.19,0.07,0.3c0.45,1.77,1.98,6.7,3.28,9.89c0.1-0.64,0.21-1.3,0.33-1.99c0.02-0.11,0.03-0.22,0.05-0.33 c0.36-1.75,0.74-3.64,1.3-5.59c0.29-0.97,0.58-1.97,0.88-2.99c0.32-1.01,0.73-2.02,1.09-3.06c0.7-2.09,1.71-4.14,2.63-6.24 c0.02-0.04,0.04-0.08,0.06-0.13c0.97-2.04,2.11-4.02,3.19-6.03c1.27-1.95,2.46-3.95,3.78-5.81c1.39-1.82,2.69-3.64,4.05-5.32 c1.43-1.62,2.81-3.19,4.12-4.68c1.35-1.44,2.74-2.7,3.96-3.92c1.23-1.21,2.35-2.31,3.45-3.18c1.07-0.9,2-1.68,2.77-2.32 c1.53-1.28,2.41-2.02,2.41-2.02s-0.81,0.8-2.24,2.21c-0.71,0.7-1.57,1.55-2.56,2.53c-1.02,0.94-2.04,2.13-3.15,3.43 c-1.1,1.3-2.36,2.65-3.57,4.18c-1.16,1.56-2.38,3.21-3.65,4.92c-1.2,1.75-2.31,3.64-3.51,5.5c-1.13,1.91-2.11,3.94-3.18,5.91 c-0.89,2.06-1.85,4.08-2.62,6.14c-0.71,2.08-1.51,4.08-2,6.11c-0.27,1.01-0.57,1.98-0.79,2.96c-0.2,0.98-0.4,1.93-0.59,2.86 c-0.37,1.86-0.58,3.64-0.77,5.27c-0.09,1.1-0.17,2.1-0.21,3.06c26.08-6.27,42.35-17.26,48.35-32.73 C371.83,447.46,358.89,424.24,354.5,417.28z" clip-rule="evenodd"/><path fill="url(#paint0_linear_631_967)" fill-rule="evenodd" d="M216.68,509.32c8.6,0.69,17.65,2.77,27.57,6.33c2.6,0.93,5.19,1.98,7.69,3 c7.09,2.88,13.78,5.59,21.24,6.14c0.14,0.01,0.28,0.01,0.42,0.02c10.98,0.69,21.37-2.92,29.27-10.23 c0.06-0.06,0.14-0.14,0.22-0.21c1.31-1.27,4.81-5.07,6.92-7.79c-0.6,0.23-1.23,0.47-1.88,0.71c-0.11,0.04-0.21,0.08-0.32,0.12 c-1.69,0.56-3.52,1.18-5.49,1.67c-0.99,0.24-2,0.48-3.03,0.74c-1.04,0.23-2.11,0.38-3.2,0.58c-2.16,0.44-4.44,0.59-6.72,0.84 c-0.05,0-0.1,0-0.14,0.01c-2.25,0.18-4.54,0.18-6.81,0.25c-2.33-0.13-4.65-0.15-6.92-0.36c-2.27-0.29-4.5-0.5-6.63-0.85 c-2.12-0.43-4.17-0.84-6.11-1.23c-1.92-0.45-3.71-1.02-5.37-1.47c-1.66-0.46-3.18-0.88-4.48-1.4c-1.31-0.48-2.45-0.9-3.39-1.24 c-1.88-0.69-2.95-1.08-2.95-1.08s1.1,0.3,3.03,0.83c0.96,0.26,2.13,0.58,3.47,0.95c1.33,0.41,2.87,0.7,4.55,1.02 c1.68,0.31,3.48,0.72,5.41,1c1.93,0.22,3.97,0.46,6.08,0.7c2.11,0.16,4.31,0.19,6.52,0.29c2.22,0.02,4.46-0.14,6.7-0.2 c2.23-0.26,4.46-0.44,6.63-0.8c2.16-0.42,4.29-0.73,6.29-1.33c1-0.27,2-0.5,2.95-0.79c0.95-0.32,1.87-0.62,2.77-0.92 c1.8-0.61,3.44-1.32,4.95-1.96c1-0.47,1.9-0.91,2.76-1.34c-18.47-19.45-36.12-28.05-52.52-25.5 C234.15,479.23,220.51,502.04,216.68,509.32z" clip-rule="evenodd"/></g></g></g><defs><linearGradient id="paint0_linear_631_967" x1="2.917" x2="43.252" y1="-4.531" y2="16.088" gradientUnits="userSpaceOnUse"><stop stop-color="#1af110"/><stop offset="1" stop-color="#1af110"/></linearGradient></defs></svg>