<svg width="24" height="24" viewBox="0 0 24 24" fill="none" xmlns="http://www.w3.org/2000/svg">
<g clip-path="url(#clip0_1_362)">
<path d="M7.20477 6C10.6316 6 13.4093 8.79714 13.4093 12.2473C13.4093 15.6976 10.6314 18.4945 7.20477 18.4945C3.77817 18.4945 1 15.6976 1 12.2473C1 8.79714 3.77796 6 7.20477 6ZM17.1133 6.36595C18.8267 6.36595 20.2157 8.99888 20.2157 12.2473H20.2159C20.2159 15.495 18.827 18.1287 17.1135 18.1287C15.4001 18.1287 14.0112 15.495 14.0112 12.2473C14.0112 8.99972 15.3999 6.36595 17.1133 6.36595ZM21.9089 6.97855C22.5114 6.97855 23 9.33743 23 12.2473C23 15.1564 22.5116 17.5162 21.9089 17.5162C21.3062 17.5162 20.818 15.1571 20.818 12.2473C20.818 9.33764 21.3064 6.97855 21.9089 6.97855Z" fill="white"/>
</g>
<defs>
<clipPath id="clip0_1_362">
<rect width="22" height="12.5469" fill="white" transform="translate(1 6)"/>
</clipPath>
</defs>
</svg>
