<svg xmlns="http://www.w3.org/2000/svg" width="53" height="44" fill="none" viewBox="0 0 53 44"><path fill="#F5F02D" fill-opacity=".5" fill-rule="evenodd" d="M6.26175 0H24.2798C35.2385 0 43.5462 5.819 46.6373 14.2835H52.25V19.4013H47.8198C47.905 20.2098 47.949 21.0348 47.949 21.8708V21.9972C47.949 22.9377 47.894 23.8673 47.784 24.7748H52.25V29.8898H46.53C43.3593 38.2388 35.1175 44 24.2825 44H6.26175V29.8898H0V24.7748H6.26175V19.4013H0V14.2862H6.26175V0ZM11.297 29.8898V39.4103H24.277C32.2905 39.4103 38.2415 35.596 41.0108 29.8898H11.297ZM42.5535 24.7748H11.297V19.4013H42.5645C42.6773 20.2455 42.7378 21.1117 42.7378 21.9972V22.121C42.7378 23.0258 42.6745 23.9085 42.5535 24.772V24.7748ZM24.2825 4.57875C32.329 4.57875 38.2993 8.49475 41.052 14.2807H11.297V4.5815H24.277L24.2825 4.57875Z" clip-rule="evenodd"/></svg>