<svg xmlns="http://www.w3.org/2000/svg" width="21" height="32" fill="none" viewBox="0 0 21 32"><path fill="#31B5FF" fill-opacity=".8" d="M9.62891 26.6477V6.41895H11.8305V26.6477H9.62891Z"/><path fill="#31B5FF" fill-opacity=".48" d="M20.3748 12.7634L13.5709 14.5671L12.0545 7.50644L14.0764 7.05071L14.8755 10.3949C14.8755 10.3949 16.7129 7.38127 14.2625 4.25849C12.8183 2.6538 12.1331 2.5864 10.514 2.33286C9.08899 2.12906 5.7769 2.61047 4.79001 6.47623C4.37279 8.96671 4.84297 10.8089 8.05236 13.2208L7.87263 15.9054C7.87263 15.9054 4.28935 13.3812 3.36505 11.6112C2.65096 10.2103 1.42336 7.44386 3.63784 3.59254C4.82853 1.66691 7.1778 -0.180097 11.3163 0.0140716C13.396 0.100725 18.4781 2.64577 17.6902 8.5864C17.5538 9.70006 16.9761 11.1828 16.9761 11.1828L19.7682 10.5618L20.3748 12.7634ZM16.4898 28.5921C15.2446 30.4841 12.8472 32.2669 8.71831 31.9668C6.63702 31.8256 1.62876 29.1457 2.57233 23.2276C2.73761 22.1204 3.35542 20.6553 3.35542 20.6553L0.548806 21.2009L0 18.988L6.85205 17.3641L8.18394 24.4632L6.14598 24.8676L5.4367 21.4978C5.4367 21.4978 3.5207 24.4584 5.88442 27.6486C7.28371 29.2918 7.9657 29.3752 9.58484 29.6705C11.0002 29.9144 14.3251 29.5164 15.4147 25.6796C15.8961 23.2036 15.4725 21.3469 12.3321 18.8468L12.584 16.167C12.584 16.167 16.0999 18.7826 16.9761 20.5783C17.6468 22.0033 18.799 24.8034 16.4898 28.5921Z"/></svg>