<svg xmlns="http://www.w3.org/2000/svg" width="56" height="55" fill="none" viewBox="0 0 56 55"><path fill="#fff" fill-rule="evenodd" d="M0.667 7.06449C0.682227 7.03416 2.18304 5.42726 4.00224 3.51708L7.29192 0L7.95889 0.651871C8.32283 1.01569 9.85397 2.47107 11.3548 3.89612C12.0756 4.58771 12.7998 5.27587 13.3949 5.84133C14.0389 6.45322 14.5318 6.92148 14.7051 7.09482L15.3267 7.70126L15.8724 7.36777C16.1756 7.1858 16.9488 6.76133 17.6158 6.44295C19.9201 5.29085 22.179 4.60865 24.938 4.21451C26.0902 4.04764 29.8195 4.07797 31.0627 4.25994C33.4578 4.60865 35.5197 5.23019 37.733 6.24587C38.4606 6.57936 39.7644 7.29189 40.2798 7.6406C40.4617 7.77702 40.6589 7.868 40.6891 7.85277C40.7346 7.83767 42.4325 6.07913 44.4791 3.94155C46.5257 1.78887 48.2387 0.0454279 48.2994 0.0454279C48.3903 0.0454279 55.2123 6.4885 55.273 6.64002C55.2881 6.68557 53.5448 8.5502 51.4072 10.7786L47.5111 14.8567L47.7991 15.357C48.3903 16.3575 49.406 18.5406 49.7396 19.5108C52.0438 26.1356 51.3011 33.3214 47.7385 39.2489L47.314 39.9463L48.2387 40.8256C51.0281 43.4482 55.5912 47.8294 55.6065 47.8749C55.6216 47.9658 48.9665 54.9242 48.9058 54.8939C48.8451 54.8636 42.7812 49.1028 41.1591 47.5263L40.4163 46.7985L39.7189 47.223C37.0356 48.8451 33.7611 49.9518 30.4562 50.3308C28.7431 50.543 25.6808 50.4672 24.0739 50.1792C20.8751 49.6032 17.9796 48.5116 15.5086 46.9351L15.0235 46.6318L14.508 47.1472C14.2351 47.4353 12.4311 49.3302 10.5058 51.3465L7.00386 55L6.77646 54.8029C6.18525 54.3178 -0.0151997 48.3296 2.80012e-05 48.2842C0.00510389 48.2791 0.0599241 48.2209 0.158269 48.1166C0.646316 47.5981 2.20525 45.9426 4.04766 44.0243C6.261 41.7049 8.09543 39.7644 8.12576 39.7037C8.15609 39.643 8.01954 39.3096 7.71639 38.7941C7.09484 37.7481 6.36722 36.1563 5.94275 34.9132C3.68385 28.3338 4.42671 21.1784 8.01954 15.2356L8.42891 14.5534L8.20152 14.3413C8.10748 14.2589 7.02911 13.2288 5.60951 11.8726C5.19824 11.4797 4.75829 11.0596 4.30539 10.6271C2.28912 8.71694 0.651899 7.11005 0.667 7.06449ZM36.0048 15.9027C34.0189 14.508 31.8662 13.6894 29.4558 13.4014C23.6344 12.7039 17.9797 15.7663 15.3722 21.0116C14.7203 22.3457 14.3716 23.3007 14.114 24.6348C13.8411 25.9841 13.8411 28.5309 14.114 29.8953C14.9781 34.1856 17.6765 37.7633 21.4968 39.7189C26.7876 42.4174 33.0789 41.5078 37.4299 37.4449C42.5236 32.6695 43.2967 24.8774 39.249 19.1469C38.5365 18.1312 37.0206 16.6153 36.0048 15.9027Z" clip-rule="evenodd"/></svg>