<svg xmlns="http://www.w3.org/2000/svg" width="38" height="48" fill="none" viewBox="0 0 38 48"><g clip-path="url(#clip0_633_1418)"><path fill="#fff" d="M16.7493 0.521219C17.9083 -0.0910575 19.672 -0.0910575 20.8311 0.521219L32.6584 6.76897C33.3565 7.1377 33.7399 7.68718 33.8086 8.25443H33.8199V39.6586C33.8045 40.2774 33.4175 40.892 32.6584 41.293L20.8311 47.5407C19.672 48.153 17.9083 48.153 16.7493 47.5407L4.92192 41.293C4.16606 40.8937 3.80331 40.2748 3.78534 39.6586C3.7835 39.5954 3.78334 39.5433 3.78529 39.5004L3.78534 8.46586C3.78358 8.42221 3.78356 8.37874 3.7853 8.33546L3.78534 8.25443H3.79063C3.84316 7.68091 4.20914 7.14546 4.92192 6.76897L16.7493 0.521219ZM31.9582 25.7745L20.8311 31.6524C19.672 32.2647 17.9083 32.2647 16.7493 31.6524L5.64692 25.7877V39.5968L16.7493 45.4305C17.4054 45.781 18.0876 46.1226 18.7519 46.1375L18.7902 46.138C19.4532 46.1402 20.0968 45.8035 20.7495 45.4848L31.9582 39.5465V25.7745ZM1.86164 38.9759C1.86164 40.1791 2.00146 40.9699 2.27908 41.5271C2.50918 41.9889 2.85444 42.3418 3.48484 42.7712L3.52083 42.7955C3.65918 42.8889 3.81158 42.9866 3.9971 43.1014L4.21587 43.2354L4.88765 43.6409L3.92413 45.234L3.17222 44.7799L3.04584 44.7023C2.82844 44.568 2.64824 44.4528 2.48017 44.3394C0.683488 43.1279 0.0134217 41.8072 0.000200086 39.0596L0 38.9759H1.86164ZM17.8594 17.3573C17.7732 17.3869 17.6924 17.4212 17.6187 17.4601L5.79136 23.7078C5.77895 23.7143 5.76712 23.7209 5.75585 23.7273L5.74584 23.733L5.76441 23.7437L5.79136 23.7583L17.6187 30.0061C17.6924 30.0449 17.7732 30.0792 17.8594 30.1088V17.3573ZM19.721 17.3573V30.1088C19.8072 30.0792 19.888 30.0449 19.9617 30.0061L31.789 23.7583C31.8014 23.7518 31.8133 23.7453 31.8245 23.7389L31.8346 23.733L31.816 23.7224L31.789 23.7078L19.9617 17.4601C19.888 17.4212 19.8072 17.3869 19.721 17.3573ZM31.9582 10.4821L21.3482 16.0868L31.9582 21.6915V10.4821ZM5.64692 10.4952V21.6784L16.2321 16.0868L5.64692 10.4952ZM19.9617 2.1676C19.3466 1.84269 18.2338 1.84269 17.6187 2.1676L5.79136 8.41531C5.77895 8.4219 5.76712 8.42836 5.75585 8.43481L5.74584 8.44059L5.76441 8.45121L5.79136 8.46586L17.6187 14.7136C18.2338 15.0385 19.3466 15.0385 19.9617 14.7136L31.789 8.46586C31.8014 8.45928 31.8133 8.45282 31.8245 8.44643L31.8346 8.44059L31.816 8.42997L31.789 8.41531L19.9617 2.1676ZM33.7059 2.85272L34.4578 3.3069L34.5842 3.3845C34.8016 3.51871 34.9818 3.63402 35.1498 3.74736C36.9465 4.95881 37.6166 6.27959 37.6298 9.02721L37.63 9.11091H35.7684C35.7684 7.90762 35.6285 7.11683 35.3509 6.55965C35.1208 6.09788 34.7756 5.74498 34.1452 5.31557L34.1092 5.29118C33.9708 5.1979 33.8185 5.10016 33.6329 4.98532L33.4141 4.85131L32.7423 4.44585L33.7059 2.85272Z"/></g><defs><clipPath id="clip0_633_1418"><rect width="37.63" height="48" fill="#fff"/></clipPath></defs></svg>