<svg xmlns="http://www.w3.org/2000/svg" width="25" height="25" fill="none" viewBox="0 0 25 25"><path fill="#fff" d="M12.345 24.4975C5.64069 24.4975 0.207031 19.0639 0.207031 12.3596C0.207031 5.65534 5.64069 0.22168 12.345 0.22168C19.0492 0.22168 24.4829 5.65534 24.4829 12.3596C24.4829 15.5788 23.2041 18.6662 20.9278 20.9424C18.6515 23.2188 15.5641 24.4975 12.345 24.4975ZM11.6219 7.85566C10.9577 7.88862 10.33 8.16856 9.8617 8.64065C9.39343 9.11274 9.11855 9.74288 9.09096 10.4072C9.09096 11.6572 9.85539 12.4732 11.4772 12.8141L12.6135 13.0827C13.7189 13.341 14.1734 13.7129 14.1734 14.343C14.1734 14.9731 13.378 15.5929 12.345 15.5929C11.978 15.6266 11.609 15.5563 11.2802 15.3901C10.9514 15.2237 10.676 14.9683 10.4855 14.6529C10.4291 14.5332 10.34 14.4319 10.2285 14.3607C10.1171 14.2894 9.98772 14.2511 9.85539 14.25H9.24592C9.19902 14.2587 9.15439 14.2766 9.11441 14.3026C9.07443 14.3286 9.04004 14.3623 9.01318 14.4017C8.98632 14.441 8.96752 14.4852 8.95781 14.5319C8.9481 14.5786 8.94768 14.6268 8.95667 14.6736C9.10512 15.2795 9.45035 15.8191 9.93814 16.2079C10.426 16.5967 11.0291 16.8127 11.6528 16.8222V17.69C11.6528 17.8831 11.7296 18.0684 11.8662 18.2049C12.0027 18.3415 12.1879 18.4182 12.3811 18.4182C12.5743 18.4182 12.7595 18.3415 12.8961 18.2049C13.0326 18.0684 13.1094 17.8831 13.1094 17.69V16.8119C13.8147 16.804 14.4891 16.5209 14.9888 16.0231C15.4885 15.5253 15.7742 14.852 15.7849 14.1467C15.7849 12.8348 15.0308 12.0807 13.2437 11.6985L12.2107 11.4712C11.1777 11.213 10.6921 10.8721 10.6921 10.2936C10.6921 9.71509 11.3119 9.07462 12.345 9.07462C12.6703 9.04063 12.9986 9.10158 13.29 9.25003C13.5815 9.39858 13.8237 9.62821 13.9875 9.91136C14.0539 10.0528 14.1589 10.1725 14.2905 10.2566C14.4223 10.3407 14.575 10.3857 14.7312 10.3866H15.2167C15.3272 10.3596 15.4225 10.2903 15.4824 10.1937C15.5422 10.0971 15.5619 9.98089 15.537 9.87004C15.397 9.31056 15.084 8.80965 14.6425 8.43859C14.201 8.06764 13.6536 7.84554 13.0784 7.80401V7.09123C13.0784 6.89806 13.0016 6.71284 12.8651 6.57627C12.7285 6.43971 12.5433 6.36296 12.3501 6.36296C12.157 6.36296 11.9717 6.43971 11.8352 6.57627C11.6986 6.71284 11.6219 6.89806 11.6219 7.09123V7.85566ZM3.2441 12.3596C3.24528 14.2625 3.84425 16.1169 4.95641 17.6609C6.06857 19.205 7.63772 20.3606 9.44219 20.9646H9.58681C9.71005 20.9646 9.82833 20.9157 9.91552 20.8285C10.0027 20.7413 10.0517 20.623 10.0517 20.4998V20.2828C10.052 20.0906 9.99526 19.9025 9.88855 19.7425C9.78195 19.5825 9.6302 19.4578 9.45252 19.3841C8.0472 18.8169 6.84343 17.8426 5.99582 16.5864C5.14818 15.3301 4.69529 13.8492 4.69529 12.3338C4.69529 10.8184 5.14818 9.33742 5.99582 8.08117C6.84343 6.82492 8.0472 5.85068 9.45252 5.28345C9.62937 5.21163 9.78071 5.08877 9.88742 4.93055C9.99413 4.77233 10.0514 4.5859 10.0517 4.39506V4.15747C10.0523 4.08771 10.0362 4.01882 10.0046 3.95663C9.97295 3.89444 9.92678 3.84081 9.86996 3.80025C9.81325 3.75971 9.74755 3.73345 9.67844 3.72369C9.60933 3.71395 9.53898 3.72101 9.47318 3.74426C7.66127 4.3435 6.08417 5.49844 4.96596 7.04495C3.84776 8.59158 3.24528 10.4511 3.2441 12.3596ZM21.4458 12.3596C21.4425 10.4584 20.8425 8.60636 19.7305 7.06437C18.6185 5.52241 17.0506 4.36835 15.2477 3.76492H15.0928C14.964 3.76492 14.8405 3.81608 14.7495 3.90713C14.6584 3.99818 14.6073 4.12167 14.6073 4.25044V4.40539C14.6114 4.60463 14.6732 4.79841 14.7849 4.96337C14.8967 5.12833 15.0538 5.25743 15.2374 5.33511C16.6395 5.904 17.84 6.87833 18.6852 8.13334C19.5304 9.38845 19.9818 10.8671 19.9818 12.3803C19.9818 13.8934 19.5304 15.3721 18.6852 16.6272C17.84 17.8822 16.6395 18.8566 15.2374 19.4254C15.0573 19.5039 14.9034 19.632 14.7937 19.7949C14.6839 19.9577 14.6229 20.1485 14.6176 20.3448V20.5204C14.6185 20.597 14.6374 20.6723 14.673 20.7402C14.7085 20.808 14.7596 20.8665 14.8221 20.9108C14.8845 20.9551 14.9566 20.984 15.0324 20.9952C15.1082 21.0064 15.1854 20.9994 15.2581 20.975C17.0623 20.3687 18.6303 19.2107 19.7407 17.6648C20.8511 16.1188 21.4476 14.2629 21.4458 12.3596Z"/></svg>