<svg xmlns="http://www.w3.org/2000/svg" width="56" height="55" fill="none" viewBox="0 0 56 55"><path fill="#fff" d="M27.7439 54.9312C12.6593 54.9312 0.433594 42.7055 0.433594 27.6209C0.433594 12.5363 12.6593 0.310547 27.7439 0.310547C42.8285 0.310547 55.0543 12.5363 55.0543 27.6209C55.0543 34.8641 52.177 41.8106 47.0553 46.9322C41.9337 52.054 34.9871 54.9312 27.7439 54.9312ZM26.1169 17.487C24.6227 17.5612 23.2102 18.191 22.1566 19.2532C21.103 20.3154 20.4845 21.7332 20.4224 23.228C20.4224 26.0404 22.1424 27.8766 25.7915 28.6436L28.3483 29.2479C30.8352 29.829 31.8579 30.6657 31.8579 32.0835C31.8579 33.5013 30.0682 34.8959 27.7439 34.8959C26.9184 34.9717 26.0881 34.8134 25.3483 34.4394C24.6085 34.0652 23.9888 33.4904 23.5602 32.7808C23.4333 32.5114 23.2327 32.2836 22.9819 32.1233C22.7312 31.9629 22.4402 31.8767 22.1424 31.8743H20.7711C20.6656 31.8939 20.5652 31.9341 20.4752 31.9926C20.3853 32.0512 20.3079 32.127 20.2474 32.2155C20.187 32.3041 20.1447 32.4036 20.1228 32.5086C20.101 32.6137 20.1001 32.722 20.1203 32.8273C20.4543 34.1907 21.2311 35.4047 22.3286 36.2795C23.4263 37.1544 24.7833 37.6404 26.1867 37.6618V39.6142C26.1867 40.0488 26.3594 40.4656 26.6666 40.7729C26.9739 41.0801 27.3906 41.2528 27.8253 41.2528C28.2599 41.2528 28.6767 41.0801 28.9839 40.7729C29.2912 40.4656 29.4639 40.0488 29.4639 39.6142V37.6386C31.0509 37.6207 32.5682 36.9838 33.6925 35.8637C34.817 34.7437 35.4596 33.2287 35.4838 31.6419C35.4838 28.6901 33.7871 26.9933 29.7661 26.1333L27.4418 25.622C25.1175 25.0409 24.0251 24.2739 24.0251 22.9723C24.0251 21.6707 25.4197 20.2297 27.7439 20.2297C28.4759 20.1532 29.2145 20.2903 29.8702 20.6243C30.5261 20.9586 31.0712 21.4753 31.4396 22.1123C31.589 22.4305 31.8254 22.6999 32.1215 22.8891C32.4178 23.0783 32.7616 23.1796 33.113 23.1815H34.2054C34.4539 23.1208 34.6684 22.9649 34.8033 22.7476C34.9378 22.5302 34.982 22.2688 34.926 22.0194C34.611 20.7605 33.9068 19.6335 32.9134 18.7986C31.92 17.964 30.6883 17.4642 29.3942 17.3708V15.767C29.3942 15.3324 29.2215 14.9157 28.9142 14.6084C28.6069 14.3011 28.1902 14.1284 27.7556 14.1284C27.3209 14.1284 26.9042 14.3011 26.5969 14.6084C26.2896 14.9157 26.1169 15.3324 26.1169 15.767V17.487ZM7.26699 27.6209C7.26966 31.9025 8.61733 36.0748 11.1197 39.5489C13.6221 43.023 17.1526 45.6232 21.2127 46.9822H21.5381C21.8154 46.9822 22.0815 46.872 22.2777 46.6758C22.4739 46.4797 22.584 46.2135 22.584 45.9363V45.4482C22.5847 45.0156 22.4571 44.5924 22.217 44.2323C21.9772 43.8723 21.6357 43.5917 21.2359 43.426C18.074 42.1498 15.3655 39.9577 13.4584 37.1312C11.5512 34.3046 10.5322 30.9725 10.5322 27.5628C10.5322 24.1531 11.5512 20.821 13.4584 17.9944C15.3655 15.1678 18.074 12.9758 21.2359 11.6995C21.6339 11.5379 21.9744 11.2615 22.2145 10.9055C22.4546 10.5495 22.5833 10.13 22.584 9.70066V9.16607C22.5854 9.00911 22.5492 8.85411 22.478 8.71418C22.4069 8.57426 22.303 8.45358 22.1752 8.36233C22.0476 8.27111 21.8998 8.21202 21.7443 8.19008C21.5888 8.16816 21.4305 8.18404 21.2824 8.23636C17.2056 9.58465 13.6571 12.1832 11.1412 15.6629C8.62523 19.1428 7.26966 23.3268 7.26699 27.6209ZM48.2209 27.6209C48.2134 23.3433 46.8635 19.1761 44.3614 15.7066C41.8593 12.2372 38.3315 9.64055 34.2752 8.28284H33.9265C33.6367 8.28284 33.3589 8.39794 33.1542 8.6028C32.9492 8.80767 32.8341 9.08554 32.8341 9.37526V9.7239C32.8434 10.1722 32.9824 10.6082 33.2339 10.9793C33.4854 11.3505 33.8389 11.641 34.2519 11.8158C37.4067 13.0958 40.1077 15.288 42.0095 18.1118C43.9112 20.9358 44.9269 24.2628 44.9269 27.6674C44.9269 31.072 43.9112 34.399 42.0095 37.223C40.1077 40.0467 37.4067 42.239 34.2519 43.519C33.8468 43.6956 33.5005 43.9839 33.2537 44.3504C33.0066 44.7167 32.8692 45.146 32.8574 45.5876V45.9827C32.8595 46.155 32.902 46.3244 32.9819 46.4771C33.0619 46.6298 33.177 46.7614 33.3176 46.8611C33.458 46.9608 33.6202 47.0259 33.7906 47.051C33.9612 47.0761 34.135 47.0605 34.2984 47.0054C38.358 45.6413 41.886 43.0358 44.3844 39.5575C46.8828 36.079 48.2248 31.9034 48.2209 27.6209Z"/></svg>