<svg xmlns="http://www.w3.org/2000/svg" width="65" height="65" fill="none" viewBox="0 0 65 65"><path fill="#4356FF" fill-opacity=".4" d="M32.2759 64.5517C14.4486 64.5517 0 50.1031 0 32.2759C0 14.4486 14.4486 0 32.2759 0C50.1031 0 64.5517 14.4486 64.5517 32.2759C64.5517 40.836 61.1514 49.0456 55.0983 55.0983C49.0456 61.1514 40.836 64.5517 32.2759 64.5517ZM30.353 20.2995C28.5871 20.3871 26.9178 21.1315 25.6726 22.3868C24.4275 23.6421 23.6965 25.3177 23.6232 27.0843C23.6232 30.408 25.6559 32.578 29.9685 33.4845L32.9901 34.1987C35.9292 34.8854 37.1378 35.8743 37.1378 37.5499C37.1378 39.2255 35.0227 40.8736 32.2759 40.8736C31.3002 40.9631 30.319 40.7761 29.4447 40.3341C28.5703 39.8919 27.838 39.2126 27.3315 38.3739C27.1815 38.0556 26.9444 37.7864 26.6481 37.5968C26.3517 37.4073 26.0078 37.3054 25.6559 37.3027H24.0352C23.9105 37.3257 23.7918 37.3732 23.6855 37.4425C23.5792 37.5117 23.4878 37.6012 23.4163 37.7059C23.3449 37.8106 23.2949 37.9281 23.2691 38.0523C23.2433 38.1764 23.2422 38.3044 23.2661 38.4289C23.6608 40.0402 24.5788 41.4749 25.8759 42.5088C27.1733 43.5427 28.7769 44.1171 30.4355 44.1424V46.4498C30.4355 46.9634 30.6395 47.456 31.0027 47.8191C31.3658 48.1822 31.8583 48.3863 32.372 48.3863C32.8857 48.3863 33.3782 48.1822 33.7413 47.8191C34.1045 47.456 34.3086 46.9634 34.3086 46.4498V44.1149C36.1841 44.0938 37.9773 43.3411 39.306 42.0174C40.6349 40.6937 41.3944 38.9033 41.423 37.028C41.423 33.5394 39.4178 31.5342 34.6657 30.5179L31.9188 29.9135C29.1719 29.2268 27.8809 28.3204 27.8809 26.7821C27.8809 25.2438 29.529 23.5408 32.2759 23.5408C33.1409 23.4504 34.0138 23.6125 34.7887 24.0072C35.5639 24.4022 36.208 25.0128 36.6434 25.7658C36.82 26.1418 37.0994 26.4602 37.4493 26.6838C37.7996 26.9074 38.2058 27.0271 38.6212 27.0293H39.9122C40.2058 26.9576 40.4594 26.7733 40.6187 26.5165C40.7777 26.2596 40.8299 25.9506 40.7637 25.6559C40.3915 24.1682 39.5592 22.8362 38.3852 21.8495C37.2112 20.8631 35.7556 20.2725 34.2261 20.1621V18.2668C34.2261 17.7531 34.0221 17.2606 33.6589 16.8974C33.2958 16.5343 32.8033 16.3302 32.2896 16.3302C31.7759 16.3302 31.2834 16.5343 30.9203 16.8974C30.5571 17.2606 30.353 17.7531 30.353 18.2668V20.2995ZM8.07583 32.2759C8.07899 37.3359 9.67169 42.2668 12.629 46.3726C15.5864 50.4784 19.7589 53.5513 24.5571 55.1574H24.9417C25.2694 55.1574 25.5839 55.0272 25.8157 54.7954C26.0476 54.5635 26.1778 54.249 26.1778 53.9213V53.3444C26.1786 52.8333 26.0278 52.333 25.7441 51.9076C25.4606 51.4821 25.0571 51.1505 24.5846 50.9547C20.8477 49.4463 17.6468 46.8558 15.3929 43.5153C13.139 40.1748 11.9347 36.2369 11.9347 32.2072C11.9347 28.1775 13.139 24.2396 15.3929 20.8991C17.6468 17.5586 20.8477 14.968 24.5846 13.4597C25.0549 13.2687 25.4573 12.942 25.741 12.5213C26.0248 12.1006 26.177 11.6049 26.1778 11.0974V10.4656C26.1794 10.2801 26.1366 10.0969 26.0525 9.93157C25.9685 9.76621 25.8457 9.62359 25.6946 9.51575C25.5438 9.40793 25.3691 9.33811 25.1853 9.31218C25.0016 9.28627 24.8145 9.30503 24.6395 9.36687C19.8215 10.9603 15.6278 14.0314 12.6544 18.1437C9.68103 22.2563 8.07899 27.201 8.07583 32.2759ZM56.4759 32.2759C56.4671 27.2205 54.8717 22.2956 51.9147 18.1953C48.9577 14.0951 44.7885 11.0264 39.9946 9.4218H39.5826C39.24 9.4218 38.9118 9.55783 38.6698 9.79994C38.4275 10.0421 38.2915 10.3704 38.2915 10.7128V11.1249C38.3025 11.6547 38.4668 12.17 38.764 12.6086C39.0612 13.0472 39.479 13.3905 39.9671 13.5971C43.6955 15.1098 46.8876 17.7006 49.1351 21.0378C51.3826 24.3753 52.583 28.3072 52.583 32.3308C52.583 36.3544 51.3826 40.2863 49.1351 43.6238C46.8876 46.961 43.6955 49.5518 39.9671 51.0645C39.4883 51.2733 39.0791 51.6139 38.7873 52.0471C38.4954 52.48 38.333 52.9874 38.319 53.5093V53.9762C38.3215 54.1798 38.3717 54.38 38.4662 54.5605C38.5607 54.741 38.6967 54.8964 38.8629 55.0143C39.0288 55.1321 39.2205 55.209 39.4219 55.2387C39.6235 55.2684 39.829 55.25 40.0221 55.1849C44.8198 53.5727 48.9893 50.4935 51.9419 46.3827C54.8945 42.2718 56.4806 37.337 56.4759 32.2759Z"/></svg>