<svg xmlns="http://www.w3.org/2000/svg" width="29" height="29" fill="none" viewBox="0 0 29 29"><path fill="#4356FF" fill-opacity=".4" d="M14.3448 28.6897C6.4216 28.6897 0 22.2681 0 14.3448C0 6.4216 6.4216 0 14.3448 0C22.2681 0 28.6897 6.4216 28.6897 14.3448C28.6897 18.1493 27.1784 21.798 24.4881 24.4881C21.798 27.1784 18.1493 28.6897 14.3448 28.6897ZM13.4902 9.02198C12.7054 9.06093 11.9635 9.39177 11.4101 9.9497C10.8567 10.5076 10.5318 11.2523 10.4992 12.0374C10.4992 13.5147 11.4026 14.4791 13.3193 14.882L14.6622 15.1994C15.9685 15.5046 16.5057 15.9441 16.5057 16.6888C16.5057 17.4335 15.5657 18.166 14.3448 18.166C13.9112 18.2058 13.4751 18.1227 13.0865 17.9263C12.6979 17.7297 12.3724 17.4278 12.1473 17.0551C12.0807 16.9136 11.9753 16.7939 11.8436 16.7097C11.7119 16.6255 11.559 16.5802 11.4026 16.579H10.6823C10.6269 16.5892 10.5742 16.6103 10.5269 16.6411C10.4797 16.6719 10.439 16.7117 10.4073 16.7582C10.3755 16.8047 10.3533 16.8569 10.3418 16.9121C10.3304 16.9673 10.3299 17.0242 10.3405 17.0795C10.5159 17.7956 10.9239 18.4333 11.5004 18.8928C12.077 19.3523 12.7897 19.6076 13.5269 19.6188V20.6443C13.5269 20.8726 13.6176 21.0915 13.779 21.2529C13.9404 21.4143 14.1593 21.505 14.3876 21.505C14.6159 21.505 14.8348 21.4143 14.9961 21.2529C15.1575 21.0915 15.2482 20.8726 15.2482 20.6443V19.6066C16.0818 19.5972 16.8788 19.2627 17.4693 18.6744C18.06 18.0861 18.3975 17.2903 18.4102 16.4569C18.4102 14.9064 17.519 14.0152 15.407 13.5635L14.1861 13.2949C12.9653 12.9897 12.3915 12.5868 12.3915 11.9032C12.3915 11.2195 13.124 10.4626 14.3448 10.4626C14.7293 10.4224 15.1173 10.4944 15.4617 10.6699C15.8062 10.8454 16.0925 11.1168 16.286 11.4514C16.3645 11.6186 16.4886 11.7601 16.6442 11.8595C16.7998 11.9588 16.9804 12.0121 17.165 12.013H17.7388C17.8693 11.9812 17.9819 11.8992 18.0528 11.7851C18.1234 11.671 18.1466 11.5336 18.1172 11.4026C17.9518 10.7414 17.5819 10.1494 17.0601 9.7109C16.5383 9.2725 15.8914 9.01002 15.2116 8.96094V8.11856C15.2116 7.89027 15.1209 7.67137 14.9595 7.50998C14.7981 7.34858 14.5792 7.25787 14.3509 7.25787C14.1226 7.25787 13.9037 7.34858 13.7423 7.50998C13.581 7.67137 13.4902 7.89027 13.4902 8.11856V9.02198ZM3.58926 14.3448C3.59066 16.5937 4.29853 18.7853 5.61291 20.61C6.92727 22.4348 8.78172 23.8006 10.9143 24.5144H11.0852C11.2308 24.5144 11.3706 24.4565 11.4737 24.3535C11.5767 24.2505 11.6346 24.1107 11.6346 23.965V23.7086C11.6349 23.4814 11.5679 23.2591 11.4418 23.07C11.3158 22.8809 11.1365 22.7336 10.9265 22.6465C9.26566 21.9762 7.84302 20.8248 6.8413 19.3401C5.83954 17.8555 5.3043 16.1053 5.3043 14.3143C5.3043 12.5233 5.83954 10.7732 6.8413 9.28849C7.84302 7.80383 9.26566 6.65246 10.9265 5.9821C11.1355 5.89721 11.3143 5.75202 11.4405 5.56502C11.5666 5.37804 11.6342 5.15772 11.6346 4.93218V4.65139C11.6353 4.56894 11.6163 4.48753 11.5789 4.41403C11.5415 4.34054 11.487 4.27715 11.4198 4.22922C11.3528 4.1813 11.2752 4.15027 11.1935 4.13875C11.1118 4.12723 11.0287 4.13557 10.9509 4.16305C8.80956 4.87125 6.9457 6.23617 5.62419 8.06387C4.30268 9.89171 3.59066 12.0893 3.58926 14.3448ZM25.1004 14.3448C25.0965 12.098 24.3874 9.90916 23.0732 8.08682C21.759 6.2645 19.906 4.90061 17.7754 4.18747H17.5923C17.44 4.18747 17.2941 4.24792 17.1866 4.35553C17.0789 4.46313 17.0185 4.60909 17.0185 4.76126V4.94439C17.0233 5.17985 17.0963 5.40887 17.2284 5.60381C17.3605 5.79877 17.5462 5.95135 17.7632 6.04314C19.4202 6.71547 20.8389 7.86695 21.8378 9.35014C22.8367 10.8335 23.3702 12.581 23.3702 14.3692C23.3702 16.1575 22.8367 17.905 21.8378 19.3883C20.8389 20.8715 19.4202 22.023 17.7632 22.6954C17.5504 22.7881 17.3685 22.9395 17.2388 23.132C17.109 23.3244 17.0369 23.5499 17.0307 23.7819V23.9894C17.0318 24.0799 17.0541 24.1689 17.0961 24.2491C17.1381 24.3293 17.1985 24.3984 17.2724 24.4508C17.3461 24.5032 17.4313 24.5373 17.5208 24.5505C17.6104 24.5637 17.7018 24.5555 17.7876 24.5266C19.9199 23.8101 21.773 22.4415 23.0853 20.6146C24.3976 18.7875 25.1025 16.5942 25.1004 14.3448Z"/></svg>