<svg width="69" height="55" viewBox="0 0 69 55" fill="none" xmlns="http://www.w3.org/2000/svg">
<path d="M40.0161 28.5042C37.8532 34.2977 35.9993 39.7051 34.2998 44.8034C32.8321 40.5548 30.9782 35.3792 28.6608 29.2766L17.3826 0H5.95004V55H13.9065V37.7739C13.9065 25.4915 13.7521 16.2991 13.5975 10.1193C14.9108 13.9817 16.4557 18.153 18.1551 22.6335L30.7464 55H37.6987L50.1355 22.6335C52.1439 17.4578 53.6888 13.2092 54.7702 9.88762C54.5386 16.0674 54.4613 25.4143 54.4613 37.7739V55H62.4177V0H50.908L40.0161 28.5042Z" fill="white"/>
<path d="M68.5569 16.3768H0V20.6254H68.5569V16.3768Z" fill="white"/>
<path d="M68.5569 31.2473H0V35.4959H68.5569V31.2473Z" fill="white"/>
</svg>
