<svg width="57" height="48" viewBox="0 0 57 48" fill="none" xmlns="http://www.w3.org/2000/svg">
<path d="M42.8071 14.6639C41.7605 14.055 40.3999 14.055 39.2486 14.6639L31.0849 19.3319L25.5378 22.3763L17.3741 27.0444C16.3274 27.6533 14.9668 27.6533 13.8155 27.0444L7.32639 23.3911C6.2798 22.7823 5.54719 21.666 5.54719 20.4482V13.2431C5.54719 12.0254 6.17514 10.9091 7.32639 10.3002L13.7109 6.74838C14.7574 6.13952 16.1181 6.13952 17.2694 6.74838L23.6538 10.3002C24.7005 10.9091 25.4331 12.0254 25.4331 13.2431V17.9112L30.9802 14.7653V10.0972C30.9802 8.87949 30.3522 7.76318 29.201 7.15432L17.3741 0.456648C16.3274 -0.152216 14.9668 -0.152216 13.8155 0.456648L1.77929 7.15432C0.627954 7.76318 0 8.87949 0 10.0972V23.5941C0 24.8118 0.627954 25.9281 1.77929 26.537L13.8155 33.2346C14.8622 33.8436 16.2228 33.8436 17.3741 33.2346L25.5378 28.6681L31.0849 25.5222L39.2486 20.9556C40.2952 20.3467 41.6559 20.3467 42.8071 20.9556L49.1916 24.5074C50.2382 25.1163 50.9709 26.2325 50.9709 27.4503V34.6554C50.9709 35.8732 50.3428 36.9894 49.1916 37.5983L42.8071 41.2516C41.7605 41.8605 40.3999 41.8605 39.2486 41.2516L32.8641 37.6998C31.8176 37.0909 31.0849 35.9746 31.0849 34.7569V30.0888L25.5378 33.2346V37.9027C25.5378 39.1205 26.1657 40.2368 27.317 40.8457L39.3533 47.5434C40.3999 48.1522 41.7605 48.1522 42.9118 47.5434L54.948 40.8457C55.9947 40.2368 56.7273 39.1205 56.7273 37.9027V24.4059C56.7273 23.1881 56.0993 22.0719 54.948 21.463L42.8071 14.6639Z" fill="white"/>
</svg>
