<svg width="16" height="25" viewBox="0 0 16 25" fill="none" xmlns="http://www.w3.org/2000/svg">
<path d="M15.4568 9.68259L10.2952 11.0509L9.14477 5.69454L10.6786 5.34881L11.2849 7.88578C11.2849 7.88578 12.6787 5.59959 10.8198 3.23058C9.72423 2.01322 9.20442 1.96209 7.97611 1.76975C6.8951 1.61515 4.38248 1.98035 3.6338 4.913C3.31729 6.80233 3.67398 8.19986 6.10868 10.0295L5.97234 12.0662C5.97234 12.0662 3.25399 10.1513 2.55279 8.80853C2.01107 7.74578 1.07979 5.64706 2.75974 2.72538C3.66302 1.26455 5.44523 -0.136625 8.58478 0.010675C10.1625 0.0764121 14.0178 2.00714 13.4201 6.51382C13.3166 7.35866 12.8784 8.4835 12.8784 8.4835L14.9966 8.01238L15.4568 9.68259ZM12.5095 21.6906C11.5649 23.1258 9.74614 24.4783 6.61389 24.2507C5.03498 24.1435 1.23561 22.1106 1.95142 17.621C2.07681 16.781 2.54549 15.6695 2.54549 15.6695L0.416335 16.0834L0 14.4047L5.1981 13.1727L6.20851 18.5583L4.66247 18.8651L4.1244 16.3087C4.1244 16.3087 2.67088 18.5547 4.46404 20.9748C5.52557 22.2213 6.04295 22.2846 7.27126 22.5086C8.34496 22.6937 10.8673 22.3918 11.6939 19.4811C12.0591 17.6027 11.7377 16.1942 9.35537 14.2976L9.54649 12.2646C9.54649 12.2646 12.2137 14.2489 12.8784 15.6111C13.3872 16.6921 14.2613 18.8164 12.5095 21.6906Z" fill="white"/>
</svg>
