<svg xmlns="http://www.w3.org/2000/svg" id="Layer_1" data-name="Layer 1" viewBox="0 0 46.55 40.06"><defs><style>.cls-1{fill:#fff;fill-rule:evenodd}</style></defs><path d="M10.41,17.86,23.32,31,36.08,18,46.55,28.65,34.39,41l-3.13-3.1,9.12-9.28-4.3-4.37-12.76,13L10.41,24.14,6.17,28.46l9.26,9.42L12.3,41,0,28.46Z" class="cls-1" transform="translate(0 -0.97)"/><path d="M36.14,24.14,23.23,11,10.47,24,0,13.35,12.16,1l3.13,3.1L6.17,13.35l4.3,4.37,12.76-13L36.14,17.86l4.24-4.32L31.12,4.12,34.25,1l12.3,12.52Z" class="cls-1" transform="translate(0 -0.97)"/><path d="M21.31,40.72V32.45h4.21v8.27Z" class="cls-1" transform="translate(0 -0.97)"/><path d="M21.31,9.55V1.28h4.21V9.55Z" class="cls-1" transform="translate(0 -0.97)"/></svg>