<?xml version="1.0" standalone="no"?>
<!DOCTYPE svg PUBLIC "-//W3C//DTD SVG 20010904//EN"
 "http://www.w3.org/TR/2001/REC-SVG-20010904/DTD/svg10.dtd">
<svg version="1.0" xmlns="http://www.w3.org/2000/svg"
 width="816.000000pt" height="1437.000000pt" viewBox="0 0 816.000000 1437.000000"
 preserveAspectRatio="xMidYMid meet">

<g transform="translate(0.000000,1437.000000) scale(0.100000,-0.100000)"
fill="#000000" stroke="none">
<path d="M0 7185 l0 -7185 4080 0 4080 0 0 7185 0 7185 -4080 0 -4080 0 0
-7185z m2465 3005 c3 -5 1 -10 -4 -10 -6 0 -11 5 -11 10 0 6 2 10 4 10 3 0 8
-4 11 -10z m4789 -1816 c9 -22 -3 -32 -14 -14 -12 19 -12 30 -1 30 5 0 12 -7
15 -16z m-4 -49 c0 -8 -2 -15 -4 -15 -2 0 -6 7 -10 15 -3 8 -1 15 4 15 6 0 10
-7 10 -15z m0 -57 c0 -23 -3 -29 -9 -19 -8 12 -4 51 5 51 2 0 4 -15 4 -32z
m-697 -525 c-3 -7 -6 -13 -8 -13 -2 0 -5 6 -8 13 -3 8 1 14 8 14 7 0 11 -6 8
-14z m-1926 -209 c-3 -3 -12 -4 -19 -1 -8 3 -5 6 6 6 11 1 17 -2 13 -5z m-63
-33 c3 -5 -1 -11 -9 -14 -9 -4 -12 -1 -8 9 6 16 10 17 17 5z m71 -31 c-3 -5
-12 -10 -18 -10 -7 0 -6 4 3 10 19 12 23 12 15 0z m-81 -72 c21 -14 31 -7 11
8 -19 14 -17 15 25 9 49 -7 66 -15 32 -15 -12 0 -27 -9 -34 -20 -7 -11 -16
-20 -21 -20 -4 0 -6 4 -2 9 3 6 -4 15 -15 21 -11 6 -20 20 -19 33 1 20 2 20 6
2 3 -11 10 -23 17 -27z m84 27 c3 -3 -4 -5 -16 -5 -11 0 -23 4 -27 9 -6 10 33
6 43 -4z m2339 -1 c-3 -3 -12 -4 -19 -1 -8 3 -5 6 6 6 11 1 17 -2 13 -5z
m-2350 -52 c-23 -3 -26 -6 -16 -18 6 -7 15 -11 20 -8 5 3 9 1 9 -4 0 -6 -7
-12 -15 -16 -9 -3 -15 0 -15 9 0 24 -18 17 -22 -7 -2 -15 -11 -24 -26 -26 -12
-2 -20 -8 -17 -13 4 -5 2 -9 -4 -9 -5 0 -11 -10 -14 -22 -2 -13 -4 -4 -3 19 0
24 4 39 10 36 5 -4 7 1 3 9 -7 18 10 38 27 32 7 -3 20 4 30 15 12 13 24 17 39
12 20 -5 20 -6 -6 -9z m-79 -3 c-2 -6 -8 -10 -13 -10 -5 0 -11 4 -13 10 -2 6
4 11 13 11 9 0 15 -5 13 -11z m87 -69 c-3 -5 -14 -10 -23 -10 -15 0 -15 2 -2
10 20 13 33 13 25 0z m-49 -28 c1 -7 0 -8 -3 -2 -3 8 -9 7 -19 -1 -20 -16 -17
-30 4 -22 14 5 14 3 -3 -11 -11 -10 -14 -15 -7 -11 18 9 15 -14 -7 -41 -11
-15 -22 -20 -26 -14 -3 5 -1 10 6 10 7 0 5 8 -7 22 -10 12 -14 18 -7 14 8 -4
15 3 19 21 11 48 43 70 50 35z m52 -18 c2 -24 2 -24 -18 -4 -24 24 -24 25 -2
27 12 1 18 -6 20 -23z m-40 -49 c-3 -3 -9 2 -12 12 -6 14 -5 15 5 6 7 -7 10
-15 7 -18z m2390 -140 c-3 -3 -9 2 -12 12 -6 14 -5 15 5 6 7 -7 10 -15 7 -18z
m-2085 -20 c-3 -9 -8 -14 -10 -11 -3 3 -2 9 2 15 9 16 15 13 8 -4z m402 -65
c-3 -5 1 -10 9 -10 8 0 17 -3 19 -7 3 -5 -6 -8 -19 -8 -16 0 -24 6 -24 18 0 9
5 17 11 17 5 0 7 -4 4 -10z m9 -48 c-6 -4 -16 -16 -23 -27 -10 -17 -12 -17 -7
-2 3 10 6 23 6 28 0 5 8 9 18 9 10 0 13 -3 6 -8z m17 -15 c-6 -8 -8 -17 -4
-20 3 -4 1 -7 -5 -7 -15 0 -15 13 0 28 16 16 23 15 9 -1z m-371 -117 c9 -16 8
-20 -5 -20 -8 0 -15 9 -15 20 0 11 2 20 5 20 2 0 9 -9 15 -20z m-60 0 c0 -5
-8 -10 -17 -10 -15 0 -16 2 -3 10 19 12 20 12 20 0z m63 -63 c-22 -27 -35 -37
-48 -37 -5 1 -2 5 8 11 10 6 22 22 28 35 5 14 14 22 20 19 7 -5 4 -14 -8 -28z
m1567 -7 c-8 -14 -6 -20 8 -23 10 -3 6 -5 -11 -6 -16 0 -26 -5 -22 -11 3 -5 1
-10 -4 -10 -17 0 -13 27 4 34 8 3 15 15 15 26 0 12 5 18 10 15 7 -4 7 -12 0
-25z m-1200 16 c0 -2 -7 -7 -16 -10 -8 -3 -12 -2 -9 4 6 10 25 14 25 6z m1170
-6 c0 -5 -2 -10 -4 -10 -3 0 -8 5 -11 10 -3 6 -1 10 4 10 6 0 11 -4 11 -10z
m-1555 -60 c3 -5 1 -10 -4 -10 -6 0 -11 5 -11 10 0 6 2 10 4 10 3 0 8 -4 11
-10z m35 -54 c0 -9 -30 -14 -35 -6 -4 6 3 10 14 10 12 0 21 -2 21 -4z m-5 -36
c3 -5 1 -10 -4 -10 -6 0 -11 5 -11 10 0 6 2 10 4 10 3 0 8 -4 11 -10z m1540 0
c3 -6 -1 -7 -9 -4 -18 7 -21 14 -7 14 6 0 13 -4 16 -10z m42 -46 c-3 -3 -12
-4 -19 -1 -8 3 -5 6 6 6 11 1 17 -2 13 -5z m-1250 -68 c-3 -7 -1 -18 4 -23 6
-6 4 -10 -6 -10 -15 0 -21 28 -8 40 11 11 15 8 10 -7z m20 -8 c-3 -8 -6 -5 -6
6 -1 11 2 17 5 13 3 -3 4 -12 1 -19z m-343 -21 c7 -6 6 -7 -4 -4 -8 2 -16 12
-17 23 -2 13 -1 15 4 4 3 -8 11 -19 17 -23z m10 -46 c4 -5 3 -16 0 -25 -5 -12
-9 -13 -19 -3 -7 6 -10 18 -8 24 6 15 19 17 27 4z m-1767 -107 c-3 -4 -2 -15
4 -25 8 -17 6 -19 -20 -19 -17 0 -31 6 -35 16 -3 8 -2 13 3 10 5 -3 14 1 21 9
7 8 17 15 23 15 6 0 7 -3 4 -6z m-1500 -40 c-3 -3 -12 -4 -19 -1 -8 3 -5 6 6
6 11 1 17 -2 13 -5z m-377 -14 c0 -5 -5 -10 -11 -10 -5 0 -7 5 -4 10 3 6 8 10
11 10 2 0 4 -4 4 -10z m5220 0 c0 -5 -10 -10 -22 -10 -19 0 -20 2 -8 10 19 13
30 13 30 0z m-3341 -22 c-15 -28 -29 -31 -27 -4 2 16 8 24 19 23 13 -1 15 -5
8 -19z m4 -35 c-7 -2 -10 -10 -7 -17 3 -7 -3 -19 -12 -27 -16 -13 -16 -12 -5
9 6 12 9 22 5 22 -3 0 -1 7 6 15 7 9 16 13 19 9 3 -4 1 -9 -6 -11z m-1842 -20
c10 -11 10 -14 2 -9 -9 5 -13 1 -13 -12 0 -21 -23 -46 -33 -36 -3 3 -3 13 0
22 5 11 3 13 -8 7 -8 -4 -3 4 11 18 14 14 26 26 26 26 1 1 8 -7 15 -16z m1803
1 c3 -8 2 -12 -4 -9 -6 3 -10 10 -10 16 0 14 7 11 14 -7z"/>
<path d="M4560 7324 c0 -8 5 -12 10 -9 6 3 10 10 10 16 0 5 -4 9 -10 9 -5 0
-10 -7 -10 -16z"/>
<path d="M3200 6270 c0 -5 5 -10 11 -10 5 0 7 5 4 10 -3 6 -8 10 -11 10 -2 0
-4 -4 -4 -10z"/>
</g>
</svg>
