<?xml version="1.0" standalone="no"?>
<!DOCTYPE svg PUBLIC "-//W3C//DTD SVG 20010904//EN"
 "http://www.w3.org/TR/2001/REC-SVG-20010904/DTD/svg10.dtd">
<svg version="1.0" xmlns="http://www.w3.org/2000/svg"
 width="660.000000pt" height="660.000000pt" viewBox="0 0 660.000000 660.000000"
 preserveAspectRatio="xMidYMid meet">
<metadata>
Created by potrace 1.14, written by Peter Selinger 2001-2017
</metadata>
<g transform="translate(0.000000,660.000000) scale(0.100000,-0.100000)"
fill="#000000" stroke="none">
<path d="M5736 6490 c-44 -59 -95 -125 -114 -146 -124 -141 -168 -189 -252
-274 -139 -138 -285 -269 -420 -376 -41 -32 -77 -61 -80 -64 -3 -3 -45 -37
-95 -75 -188 -145 -294 -236 -416 -357 -341 -340 -513 -793 -475 -1253 6 -83
9 -104 27 -192 6 -29 10 -55 10 -58 0 -2 6 -20 15 -40 8 -19 12 -35 10 -35 -2
0 5 -24 15 -52 11 -29 22 -60 24 -68 2 -8 14 -42 26 -75 24 -62 25 -67 28 -87
3 -24 19 15 25 62 5 37 22 110 60 261 36 142 135 387 229 569 45 86 200 340
226 372 6 7 44 56 84 109 39 53 99 128 131 165 90 104 331 345 416 416 41 34
88 75 104 90 17 15 33 28 37 28 4 0 -43 -51 -104 -113 -62 -62 -132 -136 -157
-165 -25 -29 -54 -64 -65 -76 -46 -53 -81 -96 -100 -122 -11 -15 -31 -42 -45
-60 -14 -18 -36 -49 -50 -69 -14 -20 -30 -42 -35 -48 -25 -28 -158 -251 -213
-357 -93 -179 -185 -406 -227 -562 -34 -127 -43 -165 -50 -203 -9 -43 -9 -44
-20 -120 -4 -27 -9 -52 -10 -55 -2 -3 -6 -49 -10 -102 l-6 -96 33 8 c18 4 62
15 98 25 36 9 70 18 75 19 15 3 181 55 265 83 192 63 488 195 650 289 67 39
185 118 188 127 2 4 8 7 13 7 27 0 261 214 357 326 122 143 268 425 297 573 2
13 9 38 14 55 16 50 33 175 27 191 -3 8 -1 15 4 15 10 0 6 353 -5 410 -3 19
-12 71 -20 115 -19 107 -23 128 -39 188 -56 212 -163 482 -273 687 -44 82
-124 221 -127 219 0 0 -37 -49 -80 -109z"/>
<path d="M2107 4284 c-1 -1 -45 -4 -97 -8 -140 -10 -347 -58 -455 -105 -136
-60 -313 -159 -353 -198 -7 -7 -16 -13 -20 -13 -4 0 -21 -13 -39 -28 -17 -15
-44 -36 -59 -47 -41 -30 -110 -92 -188 -171 -202 -202 -361 -411 -525 -692
-49 -83 -51 -98 -13 -100 52 -2 193 -18 232 -26 13 -3 42 -8 65 -11 22 -3 48
-8 58 -11 11 -4 29 -7 40 -9 12 -2 33 -6 47 -9 14 -4 37 -8 52 -11 15 -3 38
-9 52 -15 15 -5 26 -8 26 -5 0 2 18 -2 40 -10 22 -8 40 -12 40 -8 0 3 7 0 15
-7 8 -7 15 -10 15 -7 0 5 140 -34 180 -50 8 -3 20 -7 25 -8 35 -9 312 -108
370 -134 11 -5 52 -21 90 -36 39 -15 84 -33 100 -40 17 -7 55 -23 85 -35 30
-13 66 -26 80 -31 14 -4 50 -17 80 -29 30 -12 64 -23 74 -25 11 -3 40 -11 65
-19 61 -20 205 -53 261 -60 25 -3 56 -8 70 -11 34 -7 295 -7 345 0 293 43 491
114 695 251 151 100 253 196 405 379 28 33 54 63 60 67 18 13 -5 21 -28 10
-62 -32 -355 -114 -452 -127 -16 -2 -39 -6 -50 -8 -12 -3 -48 -8 -80 -12 -33
-4 -69 -9 -79 -11 -59 -11 -212 -18 -366 -18 -157 0 -216 3 -370 18 -61 5
-193 24 -235 32 -67 14 -113 24 -135 29 -14 3 -38 8 -55 11 -35 6 -337 90
-380 105 -16 6 -39 15 -50 19 -11 4 -36 13 -55 20 -19 7 -44 16 -55 20 -11 5
-27 11 -35 14 -28 11 35 -2 95 -19 99 -28 192 -50 260 -61 17 -2 41 -7 55 -11
14 -3 32 -7 40 -9 58 -10 98 -17 120 -19 14 -2 43 -6 65 -9 147 -20 242 -26
440 -28 154 -1 328 6 380 16 11 2 47 7 80 11 32 4 68 9 80 11 11 3 56 11 100
19 44 8 98 20 120 27 22 6 42 12 45 13 3 1 19 5 35 9 131 33 350 118 452 174
22 12 19 16 -80 115 -57 56 -141 136 -187 177 -45 41 -88 80 -94 85 -6 6 -47
39 -91 75 -44 35 -82 67 -85 70 -3 3 -27 21 -55 40 -27 19 -56 40 -63 47 -7 7
-17 13 -21 13 -4 0 -16 8 -27 18 -27 23 -55 41 -76 48 -10 4 -18 10 -18 15 0
5 -5 9 -11 9 -6 0 -23 8 -37 19 -142 100 -476 239 -667 277 -86 17 -143 25
-202 29 -37 2 -68 5 -68 5 0 2 -76 5 -78 4z"/>
<path d="M4320 3150 c110 -93 305 -284 337 -330 9 -14 22 -29 28 -35 18 -16
87 -105 141 -180 110 -155 202 -311 278 -470 26 -55 51 -107 56 -116 22 -42
105 -262 134 -354 2 -5 5 -17 8 -25 11 -30 48 -162 64 -225 1 -5 11 -48 23
-95 11 -47 23 -98 25 -115 3 -16 12 -64 20 -105 8 -41 12 -77 10 -79 -4 -5 -6
0 -34 109 -21 83 -74 255 -90 295 -5 11 -18 47 -30 80 -49 138 -175 410 -231
500 -14 22 -28 47 -31 56 -5 12 -64 107 -121 193 -35 53 -149 202 -196 258
-101 117 -304 314 -387 373 -15 11 -32 25 -38 30 -6 6 -42 32 -79 58 -66 46
-68 46 -77 24 -10 -26 -68 -240 -74 -277 -3 -14 -5 -25 -6 -25 -2 0 -5 -12
-13 -55 -38 -190 -48 -242 -52 -276 -2 -21 -4 -39 -5 -39 -1 0 -3 -13 -5 -30
-2 -16 -6 -50 -9 -75 -29 -244 -26 -593 8 -757 3 -15 8 -44 11 -63 9 -54 34
-151 50 -193 8 -20 15 -40 16 -45 6 -34 80 -203 118 -267 131 -226 295 -395
529 -542 98 -61 312 -166 342 -168 3 0 10 -3 15 -7 13 -8 173 -58 204 -64 14
-3 28 -7 33 -10 4 -3 16 -7 27 -9 10 -2 61 -12 112 -23 124 -27 161 -33 279
-47 30 -3 71 -8 90 -11 70 -10 440 -14 440 -6 0 5 -20 56 -45 113 -43 98 -157
417 -160 449 -1 8 -11 47 -23 85 -20 68 -51 199 -57 240 -2 11 -8 40 -14 65
-5 25 -13 61 -16 80 -4 19 -13 71 -21 115 -8 44 -17 98 -19 120 -9 74 -24 184
-30 215 -3 14 -7 43 -10 65 -2 22 -6 49 -9 60 -2 11 -7 45 -12 75 -4 30 -8 57
-9 60 -1 3 -5 21 -9 40 -42 196 -93 354 -158 484 -163 329 -406 573 -722 725
-91 44 -228 94 -288 105 -13 2 -43 9 -68 16 -25 7 -52 13 -60 14 -8 1 -31 5
-50 9 -52 10 -91 17 -130 23 l-35 5 25 -21z"/>
</g>
</svg>
