<?xml version="1.0" encoding="UTF-8"?>
<svg id="a" data-name="Layer 1" xmlns="http://www.w3.org/2000/svg" viewBox="0 0 515 431">
  <defs>
    <style>
      .b {
        fill: none;
      }

      .c {
        fill: #ff940a;
      }

      .d {
        fill: #8dffff;
      }

      .e {
        fill: #2a1f00;
      }

      .f {
        fill: aqua;
      }

      .f, .g, .h {
        stroke: #000;
        stroke-miterlimit: 10;
      }

      .g {
        fill: #00bf25;
      }

      .h {
        fill: #9f6b00;
      }
    </style>
  </defs>
  <g>
    <path class="b" d="M514,117v110h-6.94c-25.17,114.95-127.56,201-250.06,201S32.11,341.95,6.94,227H0v204H515V117h-1Z"/>
    <path class="e" d="M257,428c122.5,0,224.89-86.05,250.06-201H6.94c25.17,114.95,127.56,201,250.06,201Z"/>
    <polygon class="c" points="507.06 227 514 227 514 117 0 117 0 227 6.94 227 507.06 227"/>
  </g>
  <ellipse class="f" cx="329" cy="254" rx="115.5" ry="61.5"/>
  <ellipse class="d" cx="342.5" cy="213.5" rx="58.5" ry="10.5"/>
  <rect class="h" x="103" y="85" width="32" height="186" rx="16" ry="16"/>
  <polygon class="g" points="149.8 6 78.2 6 42.41 68 78.2 130 149.8 130 185.59 68 149.8 6"/>
  <rect class="h" x="197.2" y="69.86" width="28.1" height="163.31" rx="14.05" ry="14.05"/>
  <polygon class="g" points="238.29 .5 175.43 .5 144 54.94 175.43 109.37 238.29 109.37 269.71 54.94 238.29 .5"/>
  <rect class="h" x="164.59" y="125.52" width="33.83" height="196.65" rx="16" ry="16"/>
  <polygon class="g" points="214.07 42 138.38 42 100.53 107.55 138.38 173.1 214.07 173.1 251.91 107.55 214.07 42"/>
</svg>